<?xml version="1.0" encoding="utf-8"?>
<!-- Generator: Adobe Illustrator 26.0.1, SVG Export Plug-In . SVG Version: 6.00 Build 0)  -->
<svg version="1.1" id="Layer_1" xmlns="http://www.w3.org/2000/svg" xmlns:xlink="http://www.w3.org/1999/xlink" x="0px" y="0px"
	 viewBox="0 0 354 354" style="enable-background:new 0 0 354 354;" xml:space="preserve">
<style type="text/css">
	.st0{fill-rule:evenodd;clip-rule:evenodd;fill:#0080FF;}
	.st1{fill:none;}
	.st2{fill:#0080FF;}
	.st3{fill:#FFFFFF;}
	.st4{clip-path:url(#SVGID_00000109712267384370633870000017218668284217439399_);}
	.st5{stroke:url(#SVGID_00000026142694711906432750000000235989762357459135_);stroke-linejoin:round;stroke-miterlimit:1.4142;}
	.st6{fill-rule:evenodd;clip-rule:evenodd;fill:url(#SVGID_00000128457484827327936240000014843034228611324056_);}
</style>
<g>
	<g>
		<g>
			<path class="st0" d="M113.8,223.8"/>
			<path class="st0" d="M113.8,223.8L137,247l23.1-23.1c-15.4,0-30.8,0-46.1,0"/>
			<path class="st0" d="M174.7,223.9c-4.9,0-9.7,0-14.6,0L137,247l23.2,23.2l30.4-30.4L174.7,223.9z"/>
			<polygon id="XMLID_00000179615200077981023250000006815413956239915676_" class="st0" points="237,286.2 206.6,316.5 
				206.6,316.5 183.4,293.3 213.8,263 			"/>
			
				<rect x="165.4" y="250" transform="matrix(0.7075 -0.7068 0.7068 0.7075 -133.6954 210.0708)" class="st0" width="43" height="33"/>
			<polygon id="XMLID_00000175283443617371105280000001027451038851223718_" class="st0" points="260,309.4 229.7,339.8 
				229.7,339.8 206.5,316.6 236.9,286.3 			"/>
			<polyline id="XMLID_00000055703784353531135430000017810346190146760376_" class="st0" points="242,352 219.4,329.4 249.8,299.1 
				272.9,322.3 243.2,352 			"/>
			<line id="XMLID_00000000219485317124035970000012773000331104895118_" class="st1" x1="242" y1="352" x2="242" y2="352"/>
			<polyline id="XMLID_00000155136698783768589690000006997538965894167714_" class="st0" points="289.5,352 296.1,345.4 302.7,352 
							"/>
			<polyline id="XMLID_00000131341046568374889840000014504242738291121068_" class="st0" points="243.2,352 272.9,322.2 
				296.1,345.4 289.5,352 			"/>
		</g>
	</g>
	<g id="XMLID_44_">
		<g id="XMLID_48_">
			<path id="XMLID_49_" class="st2" d="M174.6,223.9v-43.1c45.6,0,81-45.2,63.5-93.2c-6.4-17.6-20.7-31.9-38.4-38.3
				c-48-17.4-93.2,17.9-93.2,63.5l0,0H63.6C63.6,40.1,133.8-16.5,210,7.3c33.2,10.5,59.8,36.9,70.1,70.1
				C304,153.6,247.3,223.9,174.6,223.9z"/>
		</g>
		<polygon id="XMLID_47_" class="st0" points="174.8,181 131.8,181 131.8,138.1 131.8,138.1 174.8,138.1 174.8,138.1 		"/>
		<polygon id="XMLID_46_" class="st0" points="131.8,213.9 99,213.9 99,213.9 99,181 131.8,181 		"/>
		<path id="XMLID_45_" class="st0" d="M99,181H71.4l0,0v-27.6l0,0H99l0,0V181z"/>
	</g>
	<polyline id="XMLID_00000088114756624215493180000005814937282167302803_" class="st0" points="63.7,237.1 63.7,223.8 106.6,223.8 
		106.6,259.8 63.7,259.8 63.7,259.8 63.7,237.1 	"/>
	<polygon id="XMLID_00000157304017383464176080000010703593353938046379_" class="st0" points="106.6,293.6 63.7,293.6 63.7,293.6 
		63.7,258.6 106.6,258.6 	"/>
	<polygon id="XMLID_00000043434601427797058790000004016416803691613062_" class="st0" points="106.6,352 63.7,352 63.7,352 
		63.7,320.9 106.6,320.9 	"/>
	<polygon id="XMLID_00000139289533064436687410000003430336937326617751_" class="st0" points="106.6,325.2 63.7,325.2 63.7,325.2 
		63.7,291.5 106.6,291.5 	"/>
	<g id="layer1" transform="translate(-21.475962,-178.535)">
		<g id="g1350" transform="matrix(1.0556855,0,0,1.0556855,-1.1958992,-9.9418072)">
			<path id="path3055" class="st2" d="M166.6,311c-0.4,0-0.6,0.1-1,0.3l-13.1,6.4c-0.6,0.4-1.1,1-1.4,1.8l-3.3,14.5
				c-0.1,0.6,0,1.4,0.4,2c0,0.1,0.1,0.1,0.1,0.3l9.1,11.6c0.5,0.6,1.3,1,2,1H174c0.8,0,1.5-0.4,2-1l9.1-11.6
				c0.5-0.6,0.6-1.4,0.5-2.1l-3.3-14.5c-0.1-0.8-0.6-1.4-1.4-1.8l-13.1-6.4C167.3,311,167,310.8,166.6,311z"/>
			<path id="path3059" class="st3" d="M166.7,315.9c-0.4,0-0.8,0.4-0.8,0.9l0,0c0,0.1,0,0.1,0,0.3c0,0.3,0.1,0.5,0.1,0.8
				c0.1,0.5,0.1,1,0.1,1.5c0,0.1-0.1,0.3-0.3,0.4v0.4c-0.5,0-1,0.1-1.4,0.3c-2,0.5-3.8,1.5-5.2,3c-0.1,0-0.3-0.1-0.3-0.3
				c-0.1,0-0.3,0.1-0.5,0c-0.4-0.3-0.6-0.6-1-1c-0.1-0.3-0.3-0.4-0.5-0.5l-0.1-0.1c-0.1-0.1-0.4-0.3-0.5-0.3c-0.3,0-0.5,0.1-0.6,0.3
				c-0.3,0.4-0.1,0.9,0.3,1.1l0,0l0.1,0.1c0.3,0.1,0.4,0.3,0.6,0.4c0.5,0.3,0.9,0.5,1.1,0.9c0.1,0.1,0.1,0.4,0.1,0.5l0.3,0.3
				c-1.4,2.1-2,4.7-1.6,7.3l-0.4,0.1c-0.1,0.1-0.3,0.3-0.4,0.4c-0.4,0.1-0.9,0.1-1.4,0.3c-0.3,0-0.5,0-0.8,0c0,0-0.1,0-0.3,0l0,0
				l0,0c-0.5,0.1-0.8,0.5-0.6,1c0.1,0.4,0.5,0.6,1,0.6l0,0l0,0c0.1,0,0.1,0,0.3,0c0.3-0.1,0.5-0.1,0.8-0.3c0.5-0.3,1-0.4,1.4-0.4
				c0.1,0,0.4,0.1,0.5,0.1h0.4c0.8,2.5,2.4,4.5,4.5,5.8l-0.1,0.4c0,0.1,0.1,0.4,0.1,0.5c-0.1,0.4-0.4,0.9-0.8,1.3
				c-0.1,0.3-0.3,0.4-0.4,0.6c0,0-0.1,0.1-0.1,0.3c-0.3,0.5,0,1,0.4,1.1c0.4,0.3,0.9,0,1.1-0.5l0,0l0,0c0,0,0.1-0.1,0.1-0.3
				c0.1-0.3,0.1-0.5,0.3-0.8c0.3-0.5,0.4-1.1,0.6-1.4c0.1-0.1,0.3-0.1,0.4-0.1l0.1-0.4c1.8,0.8,3.9,0.9,5.9,0.4
				c0.5-0.1,0.9-0.3,1.4-0.4c0,0.1,0.1,0.3,0.1,0.3c0.1,0,0.3,0.1,0.4,0.3c0.3,0.4,0.4,0.8,0.5,1.4c0.1,0.3,0.1,0.5,0.3,0.8
				c0,0,0.1,0.1,0.1,0.3c0.3,0.5,0.8,0.6,1.1,0.5c0.4-0.3,0.5-0.8,0.4-1.1c0-0.1-0.1-0.1-0.1-0.3c-0.1-0.3-0.3-0.4-0.4-0.6
				c-0.3-0.5-0.5-0.9-0.8-1.3c-0.1-0.3,0-0.4,0-0.5c0,0-0.1-0.3-0.1-0.4c2.1-1.3,3.8-3.4,4.5-5.8c0.1,0,0.3,0,0.4,0
				c0.1-0.1,0.3-0.1,0.4-0.1c0.4,0,0.9,0.3,1.4,0.4c0.3,0.1,0.4,0.3,0.8,0.3c0,0,0.1,0,0.3,0l0,0l0,0c0.5,0.1,0.9-0.1,1-0.6
				c0.1-0.4-0.3-0.9-0.6-1c-0.1,0-0.1,0-0.3,0c-0.3,0-0.5,0-0.8,0c-0.5,0-1-0.1-1.4-0.3c-0.1-0.1-0.3-0.3-0.4-0.4l-0.4-0.1
				c0.1-1.3,0.1-2.5-0.1-3.8c-0.3-1.3-0.8-2.4-1.5-3.5c0.1-0.1,0.3-0.3,0.3-0.3c0-0.1,0-0.3,0.1-0.5c0.3-0.3,0.8-0.5,1.1-0.9
				c0.3-0.1,0.4-0.3,0.6-0.4l0.1-0.1c0.4-0.3,0.5-0.9,0.3-1.1c-0.3-0.3-0.8-0.4-1.1-0.1l-0.1,0.1c-0.3,0.1-0.4,0.4-0.5,0.5
				c-0.4,0.4-0.8,0.8-1,1c-0.1,0.1-0.4,0-0.5,0l-0.3,0.3c-1.8-1.9-4-3-6.5-3.3c0-0.1,0-0.3,0-0.4c-0.1-0.1-0.3-0.1-0.3-0.4
				c0-0.4,0-0.9,0.1-1.5c0-0.3,0.1-0.5,0.1-0.8c0-0.1,0-0.1,0-0.3C167.5,316.3,167.1,315.9,166.7,315.9L166.7,315.9z M165.7,322.1
				l-0.3,4.3l0,0c0,0.4-0.4,0.6-0.6,0.6c-0.1,0-0.3,0-0.4-0.1l0,0l-3.4-2.4c1-1,2.4-1.8,3.9-2.1
				C165.2,322.2,165.4,322.1,165.7,322.1L165.7,322.1z M167.7,322.1c1.8,0.3,3.4,1,4.7,2.3l-3.4,2.4l0,0c-0.3,0.3-0.8,0.1-1-0.1
				c-0.1-0.1-0.1-0.3-0.1-0.4l0,0L167.7,322.1z M159.8,326l3.1,2.8l0,0c0.3,0.3,0.4,0.6,0.1,1c-0.1,0.1-0.3,0.3-0.4,0.3l0,0
				l-3.9,1.1C158.4,329.4,158.8,327.5,159.8,326L159.8,326z M173.6,326c0.5,0.8,0.8,1.6,1,2.5s0.3,1.8,0.1,2.6l-4-1.1l0,0
				c-0.4-0.1-0.6-0.5-0.5-0.9c0-0.1,0.1-0.3,0.3-0.4l0,0L173.6,326L173.6,326z M166.1,329h1.3l0.8,1l-0.3,1.3l-1.1,0.5l-1.1-0.5
				l-0.3-1.3L166.1,329z M170.1,332.5h0.1l0,0l4,0.8c-0.6,1.8-1.8,3.3-3.3,4.2l-1.6-3.9l0,0c-0.1-0.4,0-0.8,0.4-0.9
				C170,332.5,170,332.5,170.1,332.5L170.1,332.5z M163.2,332.5c0.3,0,0.6,0.3,0.6,0.5c0,0.1,0,0.3,0,0.4l0,0l-1.5,3.9
				c-1.5-1-2.6-2.4-3.3-4.2l4-0.8l0,0C163.2,332.5,163.2,332.5,163.2,332.5L163.2,332.5z M166.7,334.1c0.1,0,0.3,0,0.4,0.1
				c0.1,0.1,0.3,0.1,0.3,0.3l0,0l2,3.7c-0.3,0.1-0.5,0.1-0.8,0.3c-1.5,0.4-3,0.3-4.4-0.3l2-3.7l0,0
				C166.2,334.3,166.5,334.1,166.7,334.1L166.7,334.1z"/>
		</g>
	</g>
	<path class="st3" d="M124.8,196.5c-0.4-0.4-1.6-0.5-2.4-0.3c0-0.9-0.5-1.6-1.3-2.4l-0.3-0.3l-0.3,0.4c-0.4,0.6-0.5,1.5-0.5,2.3
		c0,0.5,0.3,1,0.5,1.4c-1.1,0.8-2.1,0.5-6.5,0.5h-6.8c0,1.1,0.1,3.3,1.4,4.9c0.1,0.3,0.3,0.4,0.5,0.5c1,1.1,2.5,1.9,4.8,1.9
		c3.4,0,6.3-2,8.2-7.1c0.6,0,2.1,0.1,2.9-1.5l0.3-0.4h-0.5C124.8,196.4,124.8,196.5,124.8,196.5z M111.8,195.5h-1.9v2.1h1.9V195.5z
		 M114.3,195.5h-1.9v2.1h1.9V195.5z M116.7,195.5h-1.9v2.1h1.9V195.5L116.7,195.5z M119.2,195.5h-1.9v2.1h1.9V195.5z M109.3,195.5
		h-1.9v2.1h1.9V195.5z M111.8,192.9h-1.9v2.1h1.9V192.9z M114.3,192.9h-1.9v2.1h1.9V192.9z M116.7,192.9h-1.9v2.1h1.9V192.9
		L116.7,192.9z M116.7,190.1h-1.9v2.1h1.9V190.1L116.7,190.1z"/>
	<g>
		<g>
			<g>
				<g>
					<defs>
						<rect id="SVGID_1_" x="73.3" y="155.4" width="23.8" height="23.8"/>
					</defs>
					<clipPath id="SVGID_00000097478988827904617850000005050365955874508704_">
						<use xlink:href="#SVGID_1_"  style="overflow:visible;"/>
					</clipPath>
					<g style="clip-path:url(#SVGID_00000097478988827904617850000005050365955874508704_);">
						<circle class="st2" cx="85.1" cy="167.2" r="11"/>
						
							<linearGradient id="SVGID_00000021833671149554230770000005224690222223216811_" gradientUnits="userSpaceOnUse" x1="89.1" y1="-35.2353" x2="89.1" y2="-26.2941" gradientTransform="matrix(1 0 0 1 0 198)">
							<stop  offset="0" style="stop-color:#FFFFFF"/>
							<stop  offset="0.6094" style="stop-color:#FFFFFF;stop-opacity:0.57"/>
							<stop  offset="0.7969" style="stop-color:#FFFFFF;stop-opacity:0"/>
							<stop  offset="1" style="stop-color:#FFFFFF;stop-opacity:0"/>
						</linearGradient>
						
							<path style="stroke:url(#SVGID_00000021833671149554230770000005224690222223216811_);stroke-linejoin:round;stroke-miterlimit:1.4142;" d="
							M89.1,171.7v-8.9"/>
						
							<linearGradient id="SVGID_00000054244392213309070060000013523146997252277893_" gradientUnits="userSpaceOnUse" x1="84.8197" y1="-26.4734" x2="90.2188" y2="-20.0051" gradientTransform="matrix(1 0 0 1 0 198)">
							<stop  offset="0" style="stop-color:#FFFFFF"/>
							<stop  offset="1" style="stop-color:#FFFFFF;stop-opacity:0"/>
						</linearGradient>
						
							<path style="fill-rule:evenodd;clip-rule:evenodd;fill:url(#SVGID_00000054244392213309070060000013523146997252277893_);" d="
							M82.2,162.8L82.2,162.8h-1.9v8.9h1.9v-6l9.4,11.6c0.5-0.4,1-0.8,1.5-1.1L82.2,162.8L82.2,162.8z"/>
					</g>
				</g>
			</g>
		</g>
	</g>
	<line id="XMLID_00000073698410318387069950000018113614955953366442_" class="st1" x1="242" y1="352" x2="302.7" y2="352"/>
</g>
</svg>
